<svg width="102" height="52" viewBox="0 0 102 52" fill="none" xmlns="http://www.w3.org/2000/svg">
<path d="M20.5052 35V26.48H24.2732C24.6652 26.48 25.0252 26.56 25.3532 26.72C25.6892 26.88 25.9772 27.096 26.2172 27.368C26.4652 27.64 26.6532 27.944 26.7812 28.28C26.9172 28.616 26.9852 28.96 26.9852 29.312C26.9852 29.856 26.8452 30.356 26.5652 30.812C26.2932 31.268 25.9212 31.596 25.4492 31.796L27.3932 35H25.5692L23.8172 32.144H22.1612V35H20.5052ZM22.1612 30.692H24.2372C24.5492 30.692 24.8052 30.56 25.0052 30.296C25.2132 30.024 25.3172 29.696 25.3172 29.312C25.3172 29.048 25.2612 28.812 25.1492 28.604C25.0372 28.396 24.8932 28.232 24.7172 28.112C24.5492 27.992 24.3652 27.932 24.1652 27.932H22.1612V30.692ZM34.4017 33.548V35H28.4857V26.48H34.2937V27.932H30.1417V29.984H33.7297V31.328H30.1417V33.548H34.4017ZM35.6927 35V26.48H39.4607C39.8527 26.48 40.2127 26.56 40.5407 26.72C40.8767 26.88 41.1647 27.096 41.4047 27.368C41.6527 27.64 41.8407 27.944 41.9687 28.28C42.1047 28.616 42.1727 28.96 42.1727 29.312C42.1727 29.856 42.0327 30.356 41.7527 30.812C41.4807 31.268 41.1087 31.596 40.6367 31.796L42.5807 35H40.7567L39.0047 32.144H37.3487V35H35.6927ZM37.3487 30.692H39.4247C39.7367 30.692 39.9927 30.56 40.1927 30.296C40.4007 30.024 40.5047 29.696 40.5047 29.312C40.5047 29.048 40.4487 28.812 40.3367 28.604C40.2247 28.396 40.0807 28.232 39.9047 28.112C39.7367 27.992 39.5527 27.932 39.3527 27.932H37.3487V30.692ZM47.2623 35.06C46.6383 35.06 46.0703 34.94 45.5583 34.7C45.0543 34.46 44.6183 34.136 44.2503 33.728C43.8903 33.312 43.6103 32.848 43.4103 32.336C43.2103 31.816 43.1103 31.284 43.1103 30.74C43.1103 30.172 43.2143 29.632 43.4223 29.12C43.6303 28.6 43.9223 28.14 44.2983 27.74C44.6743 27.332 45.1143 27.012 45.6183 26.78C46.1303 26.54 46.6903 26.42 47.2983 26.42C47.9143 26.42 48.4743 26.544 48.9783 26.792C49.4903 27.04 49.9263 27.372 50.2863 27.788C50.6543 28.204 50.9343 28.672 51.1263 29.192C51.3263 29.704 51.4263 30.228 51.4263 30.764C51.4263 31.324 51.3223 31.864 51.1143 32.384C50.9063 32.896 50.6143 33.356 50.2383 33.764C49.8703 34.164 49.4303 34.48 48.9183 34.712C48.4143 34.944 47.8623 35.06 47.2623 35.06ZM44.7903 30.74C44.7903 31.236 44.8863 31.7 45.0783 32.132C45.2783 32.564 45.5623 32.916 45.9303 33.188C46.3063 33.46 46.7543 33.596 47.2743 33.596C47.8103 33.596 48.2623 33.456 48.6303 33.176C48.9983 32.896 49.2783 32.536 49.4703 32.096C49.6623 31.656 49.7583 31.204 49.7583 30.74C49.7583 30.244 49.6583 29.78 49.4583 29.348C49.2583 28.916 48.9703 28.568 48.5943 28.304C48.2263 28.032 47.7863 27.896 47.2743 27.896C46.7383 27.896 46.2863 28.036 45.9183 28.316C45.5503 28.596 45.2703 28.956 45.0783 29.396C44.8863 29.828 44.7903 30.276 44.7903 30.74ZM56.3086 35.06C55.6286 35.06 55.0486 34.948 54.5686 34.724C54.0966 34.492 53.7126 34.176 53.4166 33.776C53.1286 33.376 52.9166 32.924 52.7806 32.42C52.6446 31.908 52.5766 31.376 52.5766 30.824V26.48H54.2326V30.824C54.2326 31.296 54.2966 31.744 54.4246 32.168C54.5526 32.592 54.7686 32.936 55.0726 33.2C55.3766 33.464 55.7846 33.596 56.2966 33.596C56.8246 33.596 57.2406 33.464 57.5446 33.2C57.8486 32.928 58.0646 32.58 58.1926 32.156C58.3206 31.732 58.3846 31.288 58.3846 30.824V26.48H60.0286V30.824C60.0286 31.408 59.9566 31.956 59.8126 32.468C59.6766 32.98 59.4566 33.432 59.1526 33.824C58.8566 34.208 58.4726 34.512 58.0006 34.736C57.5286 34.952 56.9646 35.06 56.3086 35.06ZM66.7726 28.712C66.7006 28.632 66.5486 28.528 66.3166 28.4C66.0846 28.264 65.8046 28.144 65.4766 28.04C65.1566 27.928 64.8246 27.872 64.4806 27.872C63.5766 27.872 63.1246 28.192 63.1246 28.832C63.1246 29.064 63.1966 29.248 63.3406 29.384C63.4846 29.52 63.7006 29.636 63.9886 29.732C64.2766 29.828 64.6366 29.932 65.0686 30.044C65.6286 30.188 66.1126 30.356 66.5206 30.548C66.9366 30.74 67.2526 30.996 67.4686 31.316C67.6926 31.628 67.8046 32.044 67.8046 32.564C67.8046 33.172 67.6566 33.664 67.3606 34.04C67.0726 34.408 66.6886 34.676 66.2086 34.844C65.7286 35.012 65.2086 35.096 64.6486 35.096C64.0086 35.096 63.3726 35 62.7406 34.808C62.1166 34.608 61.5606 34.336 61.0726 33.992L61.8046 32.564C61.8766 32.636 62.0046 32.732 62.1886 32.852C62.3726 32.964 62.5966 33.08 62.8606 33.2C63.1246 33.312 63.4126 33.408 63.7246 33.488C64.0366 33.568 64.3526 33.608 64.6726 33.608C65.5846 33.608 66.0406 33.316 66.0406 32.732C66.0406 32.484 65.9486 32.284 65.7646 32.132C65.5806 31.98 65.3206 31.852 64.9846 31.748C64.6566 31.644 64.2726 31.528 63.8326 31.4C63.2886 31.248 62.8366 31.08 62.4766 30.896C62.1246 30.704 61.8606 30.468 61.6846 30.188C61.5086 29.9 61.4206 29.536 61.4206 29.096C61.4206 28.512 61.5566 28.024 61.8286 27.632C62.1086 27.232 62.4846 26.932 62.9566 26.732C63.4286 26.524 63.9526 26.42 64.5286 26.42C65.1206 26.42 65.6726 26.516 66.1846 26.708C66.6966 26.9 67.1366 27.12 67.5046 27.368L66.7726 28.712ZM74.972 33.548V35H69.056V26.48H74.864V27.932H70.712V29.984H74.3V31.328H70.712V33.548H74.972ZM76.263 35V26.48H77.919V33.548H82.263V35H76.263Z" fill="white"/>
<path d="M2.1084 48H1.1123V40.9004H2.1084V48ZM3.76855 42.9316H4.76465V48H3.76855V42.9316ZM6.84473 44.9287C6.84473 44.5706 6.75195 44.2939 6.56641 44.0986C6.38086 43.9033 6.12044 43.8057 5.78516 43.8057C5.45964 43.8057 5.20736 43.8919 5.02832 44.0645C4.85254 44.237 4.76465 44.4795 4.76465 44.792L4.66211 43.8154C4.81836 43.5094 5.02181 43.2734 5.27246 43.1074C5.52637 42.9414 5.80632 42.8584 6.1123 42.8584C6.66243 42.8584 7.08724 43.0391 7.38672 43.4004C7.68945 43.7585 7.84082 44.2663 7.84082 44.9238V48H6.84473V44.9287ZM9.50098 42.2432C9.50098 41.7939 9.60352 41.4587 9.80859 41.2373C10.0169 41.0127 10.3359 40.9004 10.7656 40.9004H11.498V41.8477H10.7852C10.6908 41.8477 10.6191 41.8835 10.5703 41.9551C10.5215 42.0267 10.4971 42.1195 10.4971 42.2334V48H9.50098V42.2432ZM8.96387 42.9316H11.498V43.7812H8.96387V42.9316ZM12.6748 40.9004H13.6709V41.8965H12.6748V40.9004ZM12.6748 42.9316H13.6709V48H12.6748V42.9316ZM15.1846 42.9316H16.1807V48H15.1846V42.9316ZM18.2607 44.9287C18.2607 44.5706 18.168 44.2939 17.9824 44.0986C17.7969 43.9033 17.5365 43.8057 17.2012 43.8057C16.8757 43.8057 16.6234 43.8919 16.4443 44.0645C16.2686 44.237 16.1807 44.4795 16.1807 44.792L16.0781 43.8154C16.2344 43.5094 16.4378 43.2734 16.6885 43.1074C16.9424 42.9414 17.2223 42.8584 17.5283 42.8584C18.0785 42.8584 18.5033 43.0391 18.8027 43.4004C19.1055 43.7585 19.2568 44.2663 19.2568 44.9238V48H18.2607V44.9287ZM20.7705 40.9004H21.7666V41.8965H20.7705V40.9004ZM20.7705 42.9316H21.7666V48H20.7705V42.9316ZM24.5986 48.0244C24.1885 48.0244 23.8874 47.9121 23.6953 47.6875C23.5065 47.4596 23.4121 47.1243 23.4121 46.6816V41.457H24.4082V46.6914C24.4082 46.8151 24.4326 46.9111 24.4814 46.9795C24.5303 47.0446 24.6019 47.0771 24.6963 47.0771H25.1748V48.0244H24.5986ZM22.8896 42.9316H25.1748V43.8301H22.8896V42.9316ZM28.6172 48.0732C28.1484 48.0732 27.748 47.9854 27.416 47.8096C27.084 47.6338 26.8301 47.3766 26.6543 47.0381C26.4818 46.6963 26.3955 46.2845 26.3955 45.8027V45.2314C26.3955 44.7301 26.4785 44.3021 26.6445 43.9473C26.8138 43.5924 27.0579 43.3223 27.377 43.1367C27.696 42.9512 28.0801 42.8584 28.5293 42.8584C28.9525 42.8584 29.3138 42.9642 29.6133 43.1758C29.9128 43.3874 30.1406 43.6934 30.2969 44.0938C30.4564 44.4941 30.5361 44.9743 30.5361 45.5342V45.8662H27.1182V45.0654H29.5889C29.5596 44.652 29.4521 44.3314 29.2666 44.1035C29.0843 43.8724 28.8385 43.7568 28.5293 43.7568C28.1517 43.7568 27.8587 43.8805 27.6504 44.1279C27.4453 44.3753 27.3428 44.7253 27.3428 45.1777V45.8223C27.3428 46.2422 27.4535 46.5645 27.6748 46.7891C27.8962 47.0137 28.2103 47.126 28.6172 47.126C28.819 47.126 29.0192 47.0853 29.2178 47.0039C29.4163 46.9225 29.5938 46.8086 29.75 46.6621L30.4043 47.3164C30.1536 47.5573 29.8721 47.7445 29.5596 47.8779C29.2471 48.0081 28.9329 48.0732 28.6172 48.0732ZM35.1211 44.0498H37.543C37.7318 44.0498 37.8994 44.0042 38.0459 43.9131C38.1924 43.8219 38.3047 43.6934 38.3828 43.5273C38.4642 43.3581 38.5049 43.1644 38.5049 42.9463C38.5049 42.7282 38.4642 42.5361 38.3828 42.3701C38.3047 42.2008 38.1924 42.0706 38.0459 41.9795C37.9027 41.8883 37.735 41.8428 37.543 41.8428H35.1211V40.8955H37.5039C37.9141 40.8955 38.2738 40.9801 38.583 41.1494C38.8955 41.3187 39.1364 41.5596 39.3057 41.8721C39.4782 42.1813 39.5645 42.5394 39.5645 42.9463C39.5645 43.3532 39.4782 43.7129 39.3057 44.0254C39.1331 44.3346 38.8906 44.5739 38.5781 44.7432C38.2689 44.9124 37.9108 44.9971 37.5039 44.9971H35.1211V44.0498ZM34.6865 40.8955H35.6826V48H34.6865V40.8955ZM37.0547 44.7773L38.0459 44.5527L39.8623 48H38.6807L37.0547 44.7773ZM42.9922 48.0732C42.5234 48.0732 42.123 47.9854 41.791 47.8096C41.459 47.6338 41.2051 47.3766 41.0293 47.0381C40.8568 46.6963 40.7705 46.2845 40.7705 45.8027V45.2314C40.7705 44.7301 40.8535 44.3021 41.0195 43.9473C41.1888 43.5924 41.4329 43.3223 41.752 43.1367C42.071 42.9512 42.4551 42.8584 42.9043 42.8584C43.3275 42.8584 43.6888 42.9642 43.9883 43.1758C44.2878 43.3874 44.5156 43.6934 44.6719 44.0938C44.8314 44.4941 44.9111 44.9743 44.9111 45.5342V45.8662H41.4932V45.0654H43.9639C43.9346 44.652 43.8271 44.3314 43.6416 44.1035C43.4593 43.8724 43.2135 43.7568 42.9043 43.7568C42.5267 43.7568 42.2337 43.8805 42.0254 44.1279C41.8203 44.3753 41.7178 44.7253 41.7178 45.1777V45.8223C41.7178 46.2422 41.8285 46.5645 42.0498 46.7891C42.2712 47.0137 42.5853 47.126 42.9922 47.126C43.194 47.126 43.3942 47.0853 43.5928 47.0039C43.7913 46.9225 43.9688 46.8086 44.125 46.6621L44.7793 47.3164C44.5286 47.5573 44.2471 47.7445 43.9346 47.8779C43.6221 48.0081 43.3079 48.0732 42.9922 48.0732ZM49.1396 44.7871C49.1396 44.4551 49.0501 44.1979 48.8711 44.0156C48.6953 43.8301 48.4447 43.7373 48.1191 43.7373C47.9173 43.7373 47.7188 43.7682 47.5234 43.8301C47.3314 43.8919 47.1605 43.9782 47.0107 44.0889L46.2832 43.5908C46.4753 43.3597 46.7275 43.1807 47.04 43.0537C47.3558 42.9235 47.7057 42.8584 48.0898 42.8584C48.5098 42.8584 48.8695 42.9333 49.1689 43.083C49.4684 43.2295 49.6963 43.4443 49.8525 43.7275C50.0088 44.0075 50.0869 44.346 50.0869 44.7432V48H49.1396V44.7871ZM47.8994 48.0732C47.2744 48.0732 46.8073 47.9447 46.498 47.6875C46.1888 47.4271 46.0342 47.0332 46.0342 46.5059C46.0342 46.0046 46.1758 45.6286 46.459 45.3779C46.7422 45.1273 47.1702 45.002 47.7432 45.002H49.1836L49.252 45.8027H47.748C47.4876 45.8027 47.2923 45.8613 47.1621 45.9785C47.0352 46.0924 46.9717 46.2682 46.9717 46.5059C46.9717 46.763 47.0563 46.9535 47.2256 47.0771C47.3981 47.2008 47.6585 47.2627 48.0068 47.2627C48.3877 47.2627 48.6709 47.222 48.8564 47.1406C49.0452 47.0592 49.1396 46.9323 49.1396 46.7598L49.2422 47.4727C49.1543 47.6094 49.0452 47.7217 48.915 47.8096C48.7881 47.8975 48.64 47.9626 48.4707 48.0049C48.3014 48.0505 48.111 48.0732 47.8994 48.0732ZM53.6465 48.0732C53.1842 48.0732 52.7887 47.987 52.46 47.8145C52.1344 47.6419 51.8854 47.3913 51.7129 47.0625C51.5404 46.7337 51.4541 46.3366 51.4541 45.8711V45.0361C51.4541 44.5771 51.5404 44.1849 51.7129 43.8594C51.8854 43.5339 52.1344 43.2865 52.46 43.1172C52.7887 42.9447 53.1842 42.8584 53.6465 42.8584C53.9102 42.8584 54.1576 42.891 54.3887 42.9561C54.623 43.0179 54.833 43.109 55.0186 43.2295C55.2041 43.3499 55.3587 43.4964 55.4824 43.6689L54.7646 44.3135C54.6214 44.1507 54.4538 44.0254 54.2617 43.9375C54.0697 43.8496 53.8695 43.8057 53.6611 43.8057C53.277 43.8057 52.9792 43.9131 52.7676 44.1279C52.556 44.3428 52.4502 44.6455 52.4502 45.0361V45.8711C52.4502 46.2715 52.5544 46.5807 52.7627 46.7988C52.9743 47.0169 53.2738 47.126 53.6611 47.126C53.8727 47.126 54.0745 47.0788 54.2666 46.9844C54.4587 46.89 54.6247 46.7565 54.7646 46.584L55.4824 47.2773C55.3555 47.4466 55.1992 47.5915 55.0137 47.7119C54.8281 47.8291 54.6182 47.9186 54.3838 47.9805C54.1527 48.0423 53.9069 48.0732 53.6465 48.0732ZM57.8994 48.0244C57.4893 48.0244 57.1882 47.9121 56.9961 47.6875C56.8073 47.4596 56.7129 47.1243 56.7129 46.6816V41.457H57.709V46.6914C57.709 46.8151 57.7334 46.9111 57.7822 46.9795C57.8311 47.0446 57.9027 47.0771 57.9971 47.0771H58.4756V48.0244H57.8994ZM56.1904 42.9316H58.4756V43.8301H56.1904V42.9316ZM64.9502 48.0732C64.4587 48.0732 64.0257 47.9642 63.6514 47.7461C63.2803 47.528 62.9922 47.2188 62.7871 46.8184C62.582 46.418 62.4795 45.9541 62.4795 45.4268V43.4785C62.4795 42.9512 62.582 42.4873 62.7871 42.0869C62.9922 41.6865 63.2803 41.3773 63.6514 41.1592C64.0257 40.9378 64.4587 40.8271 64.9502 40.8271C65.3571 40.8271 65.7314 40.915 66.0732 41.0908C66.415 41.2633 66.6999 41.5091 66.9277 41.8281C67.1589 42.1471 67.3151 42.5166 67.3965 42.9365H66.376C66.3141 42.7152 66.21 42.5182 66.0635 42.3457C65.9202 42.1699 65.751 42.0348 65.5557 41.9404C65.3604 41.846 65.1585 41.7988 64.9502 41.7988C64.6605 41.7988 64.4066 41.8688 64.1885 42.0088C63.9704 42.1488 63.8011 42.3457 63.6807 42.5996C63.5602 42.8503 63.5 43.1432 63.5 43.4785V45.4268C63.5 45.7588 63.5602 46.0518 63.6807 46.3057C63.8011 46.5596 63.9704 46.7565 64.1885 46.8965C64.4066 47.0332 64.6605 47.1016 64.9502 47.1016C65.1618 47.1016 65.3636 47.0576 65.5557 46.9697C65.751 46.8818 65.9202 46.7516 66.0635 46.5791C66.21 46.4066 66.3141 46.2015 66.376 45.9639H67.3965C67.3151 46.3838 67.1589 46.7533 66.9277 47.0723C66.6966 47.3913 66.4102 47.6387 66.0684 47.8145C65.7266 47.987 65.3538 48.0732 64.9502 48.0732ZM71.5811 44.7871C71.5811 44.4551 71.4915 44.1979 71.3125 44.0156C71.1367 43.8301 70.8861 43.7373 70.5605 43.7373C70.3587 43.7373 70.1602 43.7682 69.9648 43.8301C69.7728 43.8919 69.6019 43.9782 69.4521 44.0889L68.7246 43.5908C68.9167 43.3597 69.1689 43.1807 69.4814 43.0537C69.7972 42.9235 70.1471 42.8584 70.5312 42.8584C70.9512 42.8584 71.3109 42.9333 71.6104 43.083C71.9098 43.2295 72.1377 43.4443 72.2939 43.7275C72.4502 44.0075 72.5283 44.346 72.5283 44.7432V48H71.5811V44.7871ZM70.3408 48.0732C69.7158 48.0732 69.2487 47.9447 68.9395 47.6875C68.6302 47.4271 68.4756 47.0332 68.4756 46.5059C68.4756 46.0046 68.6172 45.6286 68.9004 45.3779C69.1836 45.1273 69.6117 45.002 70.1846 45.002H71.625L71.6934 45.8027H70.1895C69.929 45.8027 69.7337 45.8613 69.6035 45.9785C69.4766 46.0924 69.4131 46.2682 69.4131 46.5059C69.4131 46.763 69.4977 46.9535 69.667 47.0771C69.8395 47.2008 70.0999 47.2627 70.4482 47.2627C70.8291 47.2627 71.1123 47.222 71.2979 47.1406C71.4867 47.0592 71.5811 46.9323 71.5811 46.7598L71.6836 47.4727C71.5957 47.6094 71.4867 47.7217 71.3564 47.8096C71.2295 47.8975 71.0814 47.9626 70.9121 48.0049C70.7428 48.0505 70.5524 48.0732 70.3408 48.0732ZM74.042 42.9316H75.0381V48H74.042V42.9316ZM76.8301 44.1328C76.7422 44.0254 76.6315 43.944 76.498 43.8887C76.3646 43.8333 76.21 43.8057 76.0342 43.8057C75.7184 43.8057 75.4727 43.8936 75.2969 44.0693C75.1243 44.2419 75.0381 44.4827 75.0381 44.792L74.9355 43.8154C75.0918 43.5127 75.2936 43.2783 75.541 43.1123C75.7884 42.943 76.0618 42.8584 76.3613 42.8584C76.5924 42.8584 76.8008 42.8926 76.9863 42.9609C77.1751 43.026 77.3395 43.1237 77.4795 43.2539L76.8301 44.1328ZM80.1553 48.0732C79.7158 48.0732 79.3398 47.987 79.0273 47.8145C78.7148 47.6419 78.4756 47.3913 78.3096 47.0625C78.1468 46.7305 78.0654 46.3317 78.0654 45.8662V45.041C78.0654 44.582 78.1468 44.1898 78.3096 43.8643C78.4756 43.5355 78.7148 43.2865 79.0273 43.1172C79.3398 42.9447 79.7158 42.8584 80.1553 42.8584C80.5947 42.8584 80.9707 42.9447 81.2832 43.1172C81.5957 43.2865 81.8333 43.5355 81.9961 43.8643C82.1621 44.1898 82.2451 44.582 82.2451 45.041V45.8809C82.2451 46.3431 82.1621 46.7386 81.9961 47.0674C81.8333 47.3929 81.5957 47.6419 81.2832 47.8145C80.9707 47.987 80.5947 48.0732 80.1553 48.0732ZM80.1553 47.126C80.5036 47.126 80.7721 47.0169 80.9609 46.7988C81.153 46.5807 81.249 46.2747 81.249 45.8809V45.041C81.249 44.6471 81.153 44.3428 80.9609 44.1279C80.7721 43.9131 80.5036 43.8057 80.1553 43.8057C79.807 43.8057 79.5368 43.9131 79.3447 44.1279C79.1559 44.3428 79.0615 44.6471 79.0615 45.041V45.8809C79.0615 46.2747 79.1559 46.5807 79.3447 46.7988C79.5368 47.0169 79.807 47.126 80.1553 47.126ZM86.5908 42.9316H87.582V48H86.5908V42.9316ZM84.5303 46.0127C84.5303 46.3675 84.6198 46.6426 84.7988 46.8379C84.9811 47.0299 85.2367 47.126 85.5654 47.126C85.891 47.126 86.1432 47.0397 86.3223 46.8672C86.5013 46.6947 86.5908 46.4489 86.5908 46.1299L86.6592 47.1895C86.555 47.4401 86.3857 47.6501 86.1514 47.8193C85.917 47.9886 85.6289 48.0732 85.2871 48.0732C84.7272 48.0732 84.2943 47.8942 83.9883 47.5361C83.6855 47.1748 83.5342 46.667 83.5342 46.0127V42.9316H84.5303V46.0127ZM90.8926 48.0732C90.5931 48.0732 90.3115 48.0439 90.0479 47.9854C89.7874 47.9268 89.5433 47.8389 89.3154 47.7217C89.0876 47.6045 88.8776 47.458 88.6855 47.2822L89.2764 46.5547C89.5498 46.763 89.8216 46.9193 90.0918 47.0234C90.362 47.1276 90.6289 47.1797 90.8926 47.1797C91.2865 47.1797 91.5811 47.1195 91.7764 46.999C91.9749 46.8753 92.0742 46.6914 92.0742 46.4473C92.0742 46.2845 92.0205 46.1624 91.9131 46.0811C91.8057 45.9997 91.6722 45.946 91.5127 45.9199C91.3532 45.8906 91.1286 45.8646 90.8389 45.8418C90.8128 45.8418 90.7852 45.8418 90.7559 45.8418C90.7266 45.8385 90.6989 45.8353 90.6729 45.832C90.6598 45.832 90.6468 45.832 90.6338 45.832C90.6208 45.8288 90.6077 45.8271 90.5947 45.8271C90.266 45.8011 89.9876 45.7539 89.7598 45.6855C89.5319 45.6139 89.3415 45.4821 89.1885 45.29C89.0387 45.098 88.9639 44.8229 88.9639 44.4648C88.9639 44.1068 89.0371 43.8089 89.1836 43.5713C89.3301 43.3337 89.5482 43.1562 89.8379 43.0391C90.1276 42.9186 90.4906 42.8584 90.9268 42.8584C91.1904 42.8584 91.4411 42.8828 91.6787 42.9316C91.9196 42.9805 92.1491 43.0537 92.3672 43.1514C92.5853 43.2458 92.7952 43.3662 92.9971 43.5127L92.3965 44.2402C92.1426 44.0775 91.8919 43.9554 91.6445 43.874C91.4004 43.7926 91.1611 43.752 90.9268 43.752C90.5882 43.752 90.3343 43.8105 90.165 43.9277C89.9958 44.0417 89.9111 44.2142 89.9111 44.4453C89.9111 44.582 89.9583 44.6846 90.0527 44.7529C90.1504 44.8213 90.2725 44.8669 90.4189 44.8896C90.5654 44.9124 90.7738 44.932 91.0439 44.9482C91.0635 44.9515 91.083 44.9531 91.1025 44.9531C91.1253 44.9531 91.1481 44.9548 91.1709 44.958C91.1807 44.958 91.1904 44.958 91.2002 44.958C91.21 44.958 91.2197 44.9596 91.2295 44.9629C91.5843 44.9857 91.8854 45.0329 92.1328 45.1045C92.3835 45.1761 92.5934 45.3177 92.7627 45.5293C92.932 45.7409 93.0166 46.0469 93.0166 46.4473C93.0166 46.8118 92.9385 47.1146 92.7822 47.3555C92.626 47.5931 92.39 47.7721 92.0742 47.8926C91.7617 48.013 91.3678 48.0732 90.8926 48.0732ZM96.3613 48.0732C95.8926 48.0732 95.4922 47.9854 95.1602 47.8096C94.8281 47.6338 94.5742 47.3766 94.3984 47.0381C94.2259 46.6963 94.1396 46.2845 94.1396 45.8027V45.2314C94.1396 44.7301 94.2227 44.3021 94.3887 43.9473C94.5579 43.5924 94.8021 43.3223 95.1211 43.1367C95.4401 42.9512 95.8242 42.8584 96.2734 42.8584C96.6966 42.8584 97.0579 42.9642 97.3574 43.1758C97.6569 43.3874 97.8848 43.6934 98.041 44.0938C98.2005 44.4941 98.2803 44.9743 98.2803 45.5342V45.8662H94.8623V45.0654H97.333C97.3037 44.652 97.1963 44.3314 97.0107 44.1035C96.8285 43.8724 96.5827 43.7568 96.2734 43.7568C95.8958 43.7568 95.6029 43.8805 95.3945 44.1279C95.1895 44.3753 95.0869 44.7253 95.0869 45.1777V45.8223C95.0869 46.2422 95.1976 46.5645 95.4189 46.7891C95.6403 47.0137 95.9544 47.126 96.3613 47.126C96.5632 47.126 96.7633 47.0853 96.9619 47.0039C97.1605 46.9225 97.3379 46.8086 97.4941 46.6621L98.1484 47.3164C97.8978 47.5573 97.6162 47.7445 97.3037 47.8779C96.9912 48.0081 96.6771 48.0732 96.3613 48.0732ZM100.644 46.6914C100.644 46.8151 100.67 46.9111 100.722 46.9795C100.777 47.0446 100.854 47.0771 100.951 47.0771H101.42V48.0244H100.834C100.456 48.0244 100.163 47.9072 99.9551 47.6729C99.75 47.4385 99.6475 47.1081 99.6475 46.6816V40.9004H100.644V46.6914Z" fill="#61DAFB"/>
<path d="M62.5925 0.526165C59.4366 0.488273 56.3122 2.42271 53.8951 4.46707C54.4859 5.12794 55.0485 5.81351 55.5813 6.52192C55.8338 6.86355 56.2027 7.32592 56.6588 7.85049C58.5216 6.25591 60.7058 4.85016 62.5403 4.87219C65.6574 4.90961 68.1623 7.47549 68.1249 10.5926C68.0875 13.7097 65.5216 16.2146 62.4045 16.1772C58.9191 16.1354 54.2874 10.9246 52.94 9.10058C52.2795 8.20363 46.3016 0.330559 40.0257 0.255203C34.5119 0.188998 29.9718 4.62135 29.9056 10.1352C29.8394 15.649 34.2717 20.1876 39.7855 20.2538C42.8504 20.2906 45.8825 18.4654 48.269 16.4863C47.6198 15.7704 47.0041 15.0248 46.4238 14.252C46.1308 13.8619 45.825 13.4816 45.5067 13.1119C43.6926 14.6294 41.6036 15.9275 39.8377 15.9062C36.7207 15.8688 34.2157 13.303 34.2531 10.1859C34.2905 7.06878 36.8564 4.5638 39.9735 4.60122C43.4604 4.64309 48.0906 9.85381 49.438 11.6779C50.0985 12.5748 56.0764 20.4479 62.3524 20.5232C65.0033 20.5523 67.5575 19.5285 69.4545 17.6765C71.3515 15.8246 72.4363 13.2956 72.4709 10.6448C72.5004 7.99368 71.4767 5.43923 69.6247 3.54214C67.7726 1.64506 65.2435 0.560366 62.5925 0.526165Z" fill="#61DAFB"/>
<path d="M70.7502 19.1462C76.8514 11.6511 73.1066 4.14812 70.7639 2.14624" stroke="#61DAFB"/>
<path d="M31.5262 2.1532C25.2715 9.85904 29.5115 17.2261 32.0747 19.1443" stroke="#61DAFB"/>
<path d="M69.6698 1.02303L72.0121 1.59448L70.2372 3.36635L69.6698 1.02303Z" fill="#61DAFB"/>
<path d="M33.04 19.8373L30.6344 19.658L32.0988 17.6162L33.04 19.8373Z" fill="#61DAFB"/>
</svg>
