<svg width="393" height="200" viewBox="0 0 393 200" fill="none" xmlns="http://www.w3.org/2000/svg">
<path d="M78.866 134.613V101.844H93.358C94.866 101.844 96.251 102.152 97.512 102.767C98.804 103.383 99.912 104.213 100.835 105.259C101.773 106.281 102.509 107.471 103.004 108.767C103.528 110.059 103.789 111.383 103.789 112.736C103.789 114.829 103.251 116.752 102.174 118.506C101.128 120.259 99.697 121.521 97.881 122.29L105.358 134.613H98.343L91.604 123.629H85.235V134.613H78.866ZM85.236 118.044H93.22C94.42 118.044 95.404 117.536 96.174 116.521C96.974 115.475 97.374 114.213 97.374 112.736C97.374 111.721 97.158 110.813 96.728 110.013C96.297 109.213 95.743 108.583 95.066 108.121C94.4505 107.67 93.7064 107.427 92.943 107.429H85.235L85.236 118.044ZM132.314 129.029V134.613H109.56V101.844H131.899V107.429H115.929V115.321H129.729V120.49H115.929V129.029H132.314ZM137.279 134.613V101.844H151.772C153.279 101.844 154.664 102.152 155.926 102.767C157.218 103.383 158.326 104.213 159.249 105.259C160.187 106.281 160.923 107.471 161.418 108.767C161.941 110.059 162.202 111.383 162.202 112.736C162.202 114.829 161.664 116.752 160.587 118.506C159.541 120.259 158.11 121.521 156.295 122.29L163.772 134.613H156.756L150.018 123.629H143.649V134.613H137.279ZM143.649 118.044H151.633C152.833 118.044 153.818 117.536 154.587 116.521C155.387 115.475 155.787 114.213 155.787 112.736C155.787 111.721 155.572 110.813 155.141 110.013C154.71 109.213 154.156 108.583 153.479 108.121C152.864 107.669 152.119 107.427 151.356 107.429H143.649V118.044ZM181.778 134.844C179.378 134.844 177.193 134.383 175.224 133.459C173.316 132.559 171.606 131.288 170.193 129.721C168.817 128.135 167.725 126.324 166.963 124.367C166.193 122.367 165.809 120.321 165.809 118.229C165.809 116.044 166.209 113.967 167.009 111.998C167.809 109.998 168.932 108.229 170.378 106.69C171.807 105.133 173.533 103.878 175.455 102.998C177.424 102.075 179.578 101.613 181.916 101.613C184.286 101.613 186.439 102.09 188.378 103.044C190.347 103.998 192.024 105.275 193.409 106.875C194.824 108.475 195.901 110.275 196.639 112.275C197.4 114.2 197.792 116.251 197.793 118.321C197.793 120.475 197.393 122.552 196.593 124.552C195.8 126.51 194.658 128.308 193.224 129.859C191.809 131.398 190.116 132.613 188.147 133.506C186.209 134.398 184.086 134.844 181.778 134.844ZM172.27 118.229C172.27 120.136 172.639 121.921 173.378 123.583C174.147 125.244 175.239 126.598 176.655 127.644C178.101 128.69 179.824 129.213 181.824 129.213C183.886 129.213 185.624 128.675 187.039 127.598C188.455 126.521 189.532 125.136 190.27 123.444C190.998 121.802 191.376 120.026 191.378 118.229C191.378 116.321 190.993 114.536 190.224 112.875C189.455 111.213 188.347 109.875 186.901 108.859C185.486 107.813 183.793 107.29 181.824 107.29C179.762 107.29 178.024 107.829 176.609 108.906C175.193 109.983 174.116 111.367 173.378 113.059C172.647 114.685 172.269 116.447 172.27 118.229ZM216.571 134.844C213.956 134.844 211.725 134.413 209.879 133.552C208.064 132.659 206.587 131.444 205.448 129.906C204.341 128.367 203.525 126.629 203.002 124.69C202.474 122.687 202.211 120.624 202.217 118.552V101.844H208.587V118.552C208.587 120.367 208.833 122.09 209.325 123.721C209.817 125.352 210.648 126.675 211.817 127.69C212.987 128.706 214.556 129.213 216.525 129.213C218.556 129.213 220.156 128.706 221.325 127.69C222.494 126.644 223.325 125.306 223.817 123.675C224.314 122.013 224.563 120.287 224.556 118.552V101.844H230.879V118.552C230.879 120.798 230.602 122.906 230.048 124.875C229.525 126.844 228.679 128.583 227.51 130.09C226.371 131.567 224.894 132.736 223.079 133.598C221.264 134.429 219.094 134.844 216.571 134.844ZM256.817 110.429C256.541 110.121 255.956 109.721 255.064 109.229C254.171 108.706 253.094 108.244 251.833 107.844C250.602 107.413 249.306 107.195 248.002 107.198C244.525 107.198 242.787 108.429 242.787 110.89C242.787 111.783 243.064 112.49 243.617 113.013C244.171 113.536 245.002 113.983 246.11 114.352C247.217 114.721 248.602 115.121 250.264 115.552C252.417 116.106 254.279 116.752 255.848 117.49C257.448 118.229 258.664 119.213 259.494 120.444C260.356 121.644 260.787 123.244 260.787 125.244C260.787 127.583 260.217 129.475 259.079 130.921C257.971 132.336 256.494 133.367 254.648 134.013C252.802 134.659 250.802 134.983 248.648 134.983C246.161 134.979 243.688 134.606 241.31 133.875C238.91 133.106 236.771 132.059 234.894 130.736L237.71 125.244C237.987 125.521 238.479 125.89 239.187 126.352C239.894 126.783 240.756 127.229 241.771 127.69C242.849 128.142 243.96 128.512 245.094 128.798C246.294 129.106 247.51 129.259 248.741 129.259C252.248 129.259 254.002 128.136 254.002 125.89C254.002 124.936 253.648 124.167 252.941 123.583C252.233 122.998 251.233 122.506 249.941 122.106C248.679 121.706 247.202 121.259 245.51 120.767C243.417 120.183 241.679 119.536 240.294 118.829C238.941 118.09 237.925 117.183 237.248 116.106C236.571 114.998 236.233 113.598 236.233 111.906C236.233 109.659 236.756 107.783 237.802 106.275C238.879 104.736 240.325 103.583 242.141 102.813C243.956 102.013 245.971 101.613 248.187 101.613C250.464 101.613 252.587 101.983 254.556 102.721C256.525 103.459 258.217 104.306 259.633 105.259L256.817 110.429ZM288.354 129.029V134.613H265.6V101.844H287.938V107.429H271.969V115.321H285.769V120.49H271.969V129.029H288.354ZM293.319 134.613V101.844H299.688V129.029H316.396V134.613H293.319Z" fill="black"/>
<path d="M8.10998 184.616H4.27698V157.31H8.10998V184.616ZM14.494 165.123H18.326V184.616H14.494V165.123ZM26.326 172.804C26.326 171.426 25.969 170.362 25.256 169.611C24.542 168.86 23.54 168.484 22.251 168.484C20.999 168.484 20.028 168.816 19.34 169.48C18.664 170.143 18.326 171.076 18.326 172.278L17.931 168.522C18.532 167.345 19.315 166.437 20.279 165.799C21.2365 165.166 22.361 164.833 23.509 164.841C25.625 164.841 27.259 165.536 28.41 166.926C29.575 168.303 30.157 170.256 30.157 172.785V184.616H26.326V172.804ZM36.542 162.475C36.542 160.747 36.937 159.458 37.725 158.606C38.526 157.742 39.754 157.31 41.406 157.31H44.223V160.954H41.481C41.118 160.954 40.843 161.091 40.655 161.367C40.467 161.642 40.373 161.999 40.373 162.437V184.616H36.543L36.542 162.475ZM34.476 165.123H44.223V168.39H34.476V165.123ZM48.749 157.31H52.58V161.141H48.75L48.749 157.31ZM48.749 165.123H52.58V184.616H48.75L48.749 165.123ZM58.402 165.123H62.233V184.616H58.403L58.402 165.123ZM70.234 172.804C70.234 171.426 69.877 170.362 69.164 169.611C68.45 168.86 67.448 168.484 66.159 168.484C64.906 168.484 63.936 168.816 63.247 169.48C62.572 170.143 62.233 171.076 62.233 172.278L61.839 168.522C62.44 167.345 63.222 166.437 64.186 165.799C65.1435 165.166 66.268 164.833 67.416 164.841C69.533 164.841 71.166 165.536 72.318 166.926C73.483 168.303 74.065 170.256 74.065 172.785V184.616H70.234V172.804ZM79.887 157.31H83.717V161.141H79.887V157.31ZM79.887 165.123H83.717V184.616H79.887V165.123ZM94.61 184.71C93.033 184.71 91.875 184.278 91.136 183.414C90.41 182.538 90.046 181.248 90.046 179.546V159.451H93.878V179.583C93.878 180.059 93.972 180.428 94.159 180.691C94.347 180.942 94.623 181.067 94.986 181.067H96.826V184.71H94.61ZM88.037 165.123H96.827V168.578H88.037V165.123ZM110.066 184.898C108.263 184.898 106.723 184.56 105.446 183.884C104.185 183.224 103.161 182.187 102.517 180.917C101.853 179.602 101.521 178.018 101.521 176.165V173.968C101.521 172.04 101.84 170.394 102.479 169.029C103.13 167.664 104.069 166.625 105.296 165.911C106.523 165.198 108 164.841 109.728 164.841C111.356 164.841 112.745 165.248 113.897 166.062C115.049 166.876 115.925 168.053 116.527 169.593C117.14 171.132 117.447 172.979 117.447 175.132V176.409H104.301V173.329H113.803C113.691 171.739 113.277 170.506 112.564 169.63C111.863 168.741 110.917 168.296 109.728 168.296C108.276 168.296 107.149 168.772 106.348 169.724C105.559 170.675 105.165 172.021 105.165 173.761V176.241C105.165 177.856 105.59 179.095 106.442 179.959C107.293 180.823 108.501 181.255 110.066 181.255C110.842 181.255 111.612 181.098 112.376 180.785C113.133 180.477 113.827 180.031 114.423 179.471L116.94 181.987C115.998 182.899 114.897 183.632 113.691 184.147C112.489 184.647 111.28 184.898 110.066 184.898ZM135.081 169.423H144.396C145.122 169.423 145.767 169.248 146.33 168.898C146.899 168.542 147.35 168.026 147.626 167.414C147.939 166.763 148.096 166.018 148.096 165.179C148.096 164.34 147.939 163.601 147.626 162.963C147.326 162.312 146.894 161.811 146.33 161.461C145.78 161.11 145.135 160.935 144.396 160.935H135.081V157.291H144.246C145.823 157.291 147.207 157.617 148.396 158.268C149.578 158.899 150.545 159.867 151.176 161.048C151.839 162.237 152.171 163.614 152.171 165.179C152.171 166.744 151.839 168.128 151.176 169.329C150.53 170.501 149.558 171.46 148.377 172.09C147.188 172.741 145.811 173.067 144.246 173.067H135.081V169.423ZM133.41 157.291H137.241V184.616H133.41V157.291ZM142.518 172.221L146.33 171.358L153.317 184.616H148.772L142.518 172.221ZM165.355 184.898C163.552 184.898 162.012 184.56 160.735 183.884C159.473 183.224 158.449 182.187 157.805 180.917C157.142 179.602 156.81 178.018 156.81 176.165V173.968C156.81 172.04 157.129 170.394 157.767 169.029C158.418 167.664 159.357 166.625 160.585 165.911C161.812 165.198 163.289 164.841 165.017 164.841C166.644 164.841 168.034 165.248 169.186 166.062C170.338 166.876 171.214 168.053 171.815 169.593C172.428 171.132 172.735 172.979 172.735 175.132V176.409H159.589V173.329H169.092C168.979 171.739 168.566 170.506 167.852 169.63C167.151 168.741 166.206 168.296 165.017 168.296C163.564 168.296 162.437 168.772 161.636 169.724C160.847 170.675 160.453 172.021 160.453 173.761V176.241C160.453 177.856 160.879 179.095 161.73 179.959C162.582 180.823 163.79 181.255 165.355 181.255C166.131 181.255 166.901 181.098 167.665 180.785C168.422 180.476 169.116 180.031 169.712 179.471L172.228 181.987C171.286 182.9 170.185 183.632 168.979 184.147C167.777 184.647 166.569 184.898 165.355 184.898ZM188.998 172.259C188.998 170.982 188.654 169.993 187.966 169.292C187.29 168.578 186.326 168.221 185.073 168.221C184.297 168.221 183.534 168.34 182.782 168.578C182.075 168.801 181.409 169.137 180.81 169.574L178.012 167.658C178.751 166.769 179.721 166.081 180.923 165.592C182.138 165.091 183.483 164.841 184.961 164.841C186.576 164.841 187.96 165.129 189.111 165.705C190.263 166.268 191.14 167.094 191.74 168.184C192.342 169.261 192.642 170.563 192.642 172.09V184.616H188.998V172.259ZM184.228 184.898C181.825 184.898 180.028 184.404 178.838 183.414C177.649 182.413 177.055 180.898 177.055 178.87C177.055 176.942 177.599 175.496 178.688 174.531C179.778 173.568 181.424 173.086 183.628 173.086H189.168L189.431 176.165H183.646C182.645 176.165 181.893 176.391 181.393 176.841C180.905 177.279 180.66 177.956 180.66 178.87C180.66 179.859 180.986 180.591 181.637 181.067C182.3 181.542 183.302 181.781 184.642 181.781C186.107 181.781 187.196 181.624 187.909 181.311C188.635 180.998 188.998 180.51 188.998 179.846L189.393 182.588C189.067 183.102 188.639 183.543 188.135 183.884C187.616 184.236 187.037 184.491 186.426 184.635C185.775 184.811 185.042 184.898 184.228 184.898ZM206.333 184.898C204.555 184.898 203.033 184.566 201.769 183.903C200.536 183.259 199.532 182.248 198.896 181.011C198.232 179.746 197.9 178.219 197.9 176.428V173.217C197.9 171.451 198.232 169.943 198.896 168.691C199.534 167.465 200.538 166.467 201.769 165.836C203.033 165.173 204.555 164.841 206.333 164.841C207.347 164.841 208.298 164.966 209.187 165.217C210.046 165.436 210.864 165.791 211.61 166.268C212.305 166.715 212.911 167.288 213.394 167.958L210.633 170.438C210.099 169.824 209.439 169.33 208.699 168.991C207.975 168.657 207.187 168.484 206.389 168.484C204.912 168.484 203.766 168.898 202.952 169.724C202.138 170.55 201.732 171.714 201.732 173.217V176.428C201.732 177.968 202.132 179.158 202.933 179.996C203.747 180.835 204.899 181.255 206.389 181.255C207.203 181.255 207.979 181.073 208.718 180.71C209.462 180.344 210.115 179.818 210.633 179.17L213.394 181.837C212.897 182.497 212.286 183.063 211.591 183.508C210.841 183.975 210.024 184.323 209.168 184.541C208.28 184.779 207.334 184.898 206.333 184.898ZM222.69 184.71C221.113 184.71 219.955 184.278 219.216 183.414C218.49 182.538 218.127 181.248 218.127 179.546V159.451H221.958V179.583C221.958 180.059 222.052 180.428 222.239 180.691C222.427 180.942 222.703 181.067 223.066 181.067H224.906V184.71H222.69ZM216.117 165.123H224.906V168.578H216.117V165.123ZM249.808 184.898C247.918 184.898 246.253 184.479 244.813 183.64C243.386 182.801 242.278 181.612 241.489 180.072C240.7 178.532 240.306 176.748 240.306 174.719V167.226C240.306 165.198 240.7 163.414 241.489 161.874C242.278 160.334 243.386 159.144 244.813 158.306C246.253 157.454 247.918 157.028 249.808 157.028C251.373 157.028 252.813 157.366 254.128 158.043C255.44 158.704 256.568 159.678 257.414 160.878C258.303 162.105 258.904 163.526 259.217 165.141H255.292C255.062 164.305 254.652 163.53 254.09 162.869C253.562 162.212 252.895 161.679 252.137 161.31C251.412 160.954 250.616 160.767 249.808 160.766C248.694 160.766 247.718 161.035 246.879 161.573C246.04 162.112 245.389 162.869 244.926 163.846C244.462 164.81 244.231 165.936 244.231 167.226V174.719C244.231 175.996 244.462 177.123 244.926 178.1C245.389 179.076 246.04 179.834 246.879 180.372C247.718 180.898 248.694 181.161 249.808 181.161C250.622 181.161 251.398 180.992 252.137 180.654C252.895 180.311 253.564 179.796 254.09 179.151C254.654 178.488 255.054 177.699 255.292 176.785H259.217C258.904 178.4 258.303 179.821 257.414 181.048C256.555 182.25 255.422 183.228 254.109 183.903C252.795 184.566 251.361 184.898 249.808 184.898ZM275.312 172.259C275.312 170.982 274.967 169.993 274.279 169.292C273.603 168.578 272.639 168.221 271.387 168.221C270.61 168.221 269.847 168.34 269.095 168.578C268.388 168.801 267.722 169.137 267.123 169.574L264.325 167.658C265.064 166.769 266.034 166.081 267.236 165.592C268.451 165.091 269.797 164.841 271.274 164.841C272.889 164.841 274.273 165.129 275.425 165.705C276.576 166.268 277.453 167.094 278.053 168.184C278.655 169.261 278.955 170.563 278.955 172.09V184.616H275.312V172.259ZM270.542 184.898C268.138 184.898 266.341 184.404 265.152 183.414C263.962 182.413 263.368 180.898 263.368 178.87C263.368 176.942 263.912 175.496 265.002 174.531C266.091 173.568 267.737 173.086 269.941 173.086H275.481L275.744 176.165H269.96C268.958 176.165 268.207 176.391 267.706 176.841C267.218 177.279 266.973 177.956 266.973 178.87C266.973 179.859 267.299 180.591 267.95 181.067C268.613 181.542 269.615 181.781 270.955 181.781C272.42 181.781 273.509 181.624 274.223 181.311C274.949 180.998 275.312 180.51 275.312 179.846L275.706 182.588C275.38 183.102 274.952 183.543 274.448 183.884C273.929 184.236 273.35 184.491 272.739 184.635C272.088 184.811 271.355 184.898 270.542 184.898ZM284.777 165.123H288.608V184.616H284.777V165.123ZM295.5 169.743C295.16 169.328 294.721 169.005 294.223 168.804C293.71 168.591 293.115 168.484 292.439 168.484C291.225 168.484 290.28 168.823 289.603 169.498C288.94 170.162 288.608 171.088 288.608 172.278L288.213 168.522C288.815 167.358 289.591 166.456 290.542 165.818C291.468 165.175 292.57 164.833 293.697 164.841C294.586 164.841 295.388 164.973 296.101 165.235C296.806 165.473 297.452 165.857 297.998 166.362L295.5 169.743ZM308.29 184.898C306.599 184.898 305.153 184.566 303.951 183.903C302.749 183.239 301.829 182.275 301.191 181.011C300.565 179.734 300.252 178.2 300.252 176.409V173.236C300.252 171.47 300.565 169.962 301.191 168.71C301.829 167.445 302.749 166.488 303.951 165.836C305.153 165.173 306.599 164.841 308.29 164.841C309.98 164.841 311.426 165.173 312.628 165.836C313.83 166.488 314.743 167.445 315.37 168.71C316.008 169.962 316.327 171.47 316.327 173.236V176.466C316.327 178.244 316.008 179.765 315.37 181.029C314.743 182.281 313.83 183.239 312.628 183.903C311.426 184.566 309.98 184.898 308.29 184.898ZM308.29 181.255C309.629 181.255 310.662 180.835 311.388 179.996C312.127 179.158 312.496 177.981 312.496 176.466V173.236C312.496 171.721 312.127 170.55 311.388 169.724C310.662 168.898 309.629 168.484 308.29 168.484C306.95 168.484 305.911 168.898 305.172 169.724C304.446 170.55 304.083 171.721 304.083 173.236V176.466C304.083 177.981 304.446 179.158 305.172 179.996C305.911 180.835 306.95 181.255 308.29 181.255ZM333.042 165.123H336.854V184.616H333.042V165.123ZM325.117 176.973C325.117 178.337 325.461 179.396 326.149 180.147C326.85 180.885 327.833 181.255 329.098 181.255C330.35 181.255 331.32 180.923 332.009 180.259C332.697 179.596 333.042 178.651 333.042 177.424L333.305 181.499C332.904 182.463 332.253 183.271 331.352 183.921C330.45 184.573 329.342 184.898 328.027 184.898C325.874 184.898 324.209 184.209 323.032 182.832C321.867 181.442 321.285 179.489 321.285 176.973V165.123H325.117V176.973ZM349.587 184.898C348.435 184.898 347.352 184.785 346.338 184.56C345.36 184.344 344.413 184.003 343.521 183.546C342.642 183.093 341.827 182.525 341.098 181.856L343.371 179.057C344.422 179.859 345.468 180.46 346.507 180.86C347.546 181.261 348.573 181.461 349.587 181.461C351.102 181.461 352.235 181.23 352.986 180.766C353.75 180.291 354.132 179.583 354.132 178.644C354.132 178.018 353.925 177.549 353.512 177.236C353.099 176.923 352.585 176.716 351.972 176.616C351.358 176.503 350.495 176.403 349.38 176.316H349.061C348.948 176.303 348.842 176.291 348.742 176.278H348.592C348.543 176.266 348.492 176.26 348.441 176.259C347.177 176.159 346.106 175.978 345.23 175.714C344.359 175.444 343.593 174.913 343.033 174.193C342.457 173.455 342.169 172.397 342.169 171.019C342.169 169.643 342.45 168.497 343.014 167.583C343.577 166.669 344.416 165.986 345.53 165.536C346.645 165.073 348.041 164.841 349.718 164.841C350.732 164.841 351.697 164.935 352.61 165.123C353.537 165.311 354.42 165.592 355.258 165.968C356.097 166.331 356.905 166.794 357.681 167.358L355.371 170.156C354.395 169.53 353.43 169.06 352.479 168.747C351.59 168.443 350.658 168.284 349.718 168.278C348.416 168.278 347.44 168.503 346.788 168.954C346.138 169.392 345.812 170.056 345.812 170.944C345.812 171.47 345.993 171.865 346.357 172.128C346.732 172.391 347.202 172.566 347.765 172.653C348.328 172.741 349.13 172.816 350.169 172.879C350.244 172.891 350.319 172.897 350.394 172.897C350.482 172.897 350.57 172.904 350.657 172.916H350.77C350.808 172.916 350.845 172.922 350.883 172.935C352.247 173.023 353.405 173.204 354.357 173.48C355.321 173.755 356.128 174.3 356.78 175.114C357.431 175.928 357.756 177.104 357.756 178.644C357.756 180.046 357.456 181.211 356.855 182.137C356.254 183.051 355.346 183.74 354.132 184.203C352.93 184.666 351.415 184.898 349.587 184.898ZM370.62 184.898C368.818 184.898 367.278 184.56 366.001 183.884C364.739 183.224 363.715 182.187 363.071 180.917C362.407 179.602 362.075 178.018 362.075 176.165V173.968C362.075 172.04 362.395 170.394 363.033 169.029C363.684 167.664 364.623 166.625 365.85 165.911C367.077 165.198 368.555 164.841 370.282 164.841C371.91 164.841 373.3 165.248 374.452 166.062C375.603 166.876 376.48 168.053 377.081 169.593C377.694 171.132 378.001 172.979 378.001 175.132V176.409H364.855V173.329H374.358C374.245 171.739 373.832 170.506 373.118 169.63C372.417 168.741 371.472 168.296 370.282 168.296C368.83 168.296 367.703 168.772 366.902 169.724C366.113 170.675 365.719 172.021 365.719 173.761V176.241C365.719 177.856 366.145 179.095 366.996 179.959C367.847 180.823 369.055 181.255 370.62 181.255C371.397 181.255 372.167 181.098 372.93 180.785C373.687 180.477 374.381 180.031 374.977 179.471L377.494 181.987C376.552 182.9 375.451 183.632 374.245 184.147C373.043 184.647 371.835 184.898 370.62 184.898ZM387.092 179.583C387.092 180.059 387.192 180.428 387.392 180.691C387.604 180.942 387.9 181.067 388.273 181.067H390.077V184.71H387.823C386.369 184.71 385.242 184.259 384.443 183.358C383.654 182.457 383.26 181.186 383.26 179.546V157.31H387.092V179.583ZM240.741 2.02529C228.603 1.87929 216.586 9.31929 207.289 17.1823C209.562 19.7238 211.726 22.3605 213.775 25.0853C214.746 26.3993 216.165 28.1783 217.919 30.1953C225.084 24.0623 233.484 18.6553 240.54 18.7403C252.529 18.8843 262.164 28.7533 262.019 40.7413C261.876 52.7313 252.007 62.3653 240.018 62.2213C226.612 62.0603 208.799 42.0193 203.616 35.0033C201.076 31.5533 178.084 1.27329 153.946 0.983293C132.739 0.728293 115.277 17.7753 115.022 38.9833C114.767 60.1893 131.815 77.6453 153.022 77.9003C164.81 78.0413 176.472 71.0223 185.651 63.4103C183.154 60.6565 180.786 57.7888 178.554 54.8163C177.427 53.3158 176.25 51.8533 175.026 50.4313C168.049 56.2683 160.014 61.2613 153.223 61.1793C141.234 61.0353 131.599 51.1663 131.743 39.1773C131.887 27.1883 141.756 17.5543 153.745 17.6973C167.156 17.8593 184.964 37.9003 190.147 44.9163C192.687 48.3663 215.679 78.6463 239.817 78.9363C250.013 79.0476 259.837 75.1098 267.133 67.987C274.429 60.8641 278.601 51.1379 278.735 40.9423C278.847 30.7462 274.91 20.922 267.787 13.6259C260.664 6.32971 250.937 2.15764 240.741 2.02529Z" fill="#61DAFB"/>
<path d="M272.116 73.6389C295.582 44.8109 281.179 15.9529 272.169 8.25391M121.255 8.28091C97.199 37.9179 113.506 66.2529 123.365 73.6309" stroke="#61DAFB"/>
<path d="M267.96 3.93359L276.969 6.13159L270.143 12.9456L267.96 3.93359ZM127.077 76.2956L117.824 75.6056L123.456 67.7536L127.077 76.2956Z" fill="#61DAFB"/>
</svg>
